<svg xmlns="http://www.w3.org/2000/svg" version="1.1" xmlns:xlink="http://www.w3.org/1999/xlink" xmlns:svgjs="http://svgjs.dev/svgjs" width="2000" height="287" viewBox="0 0 2000 287"><g transform="matrix(1,0,0,1,-1.2121212121212466,-0.23604848632538733)"><svg viewBox="0 0 396 57" data-background-color="#2b7a78" preserveAspectRatio="xMidYMid meet" height="287" width="2000" xmlns="http://www.w3.org/2000/svg" xmlns:xlink="http://www.w3.org/1999/xlink"><g id="tight-bounds" transform="matrix(1,0,0,1,0.2400000000000091,0.04688070982768977)"><svg viewBox="0 0 395.52 56.90623858034459" height="56.90623858034459" width="395.52"><g><svg viewBox="0 0 485.00090580209616 69.780484570331" height="56.90623858034459" width="395.52"><g transform="matrix(1,0,0,1,89.48090580209619,3.7220995995198116)"><svg viewBox="0 0 395.52 62.336285371291375" height="62.336285371291375" width="395.52"><g id="textblocktransform"><svg viewBox="0 0 395.52 62.336285371291375" height="62.336285371291375" width="395.52" id="textblock"><g><svg viewBox="0 0 395.52 62.336285371291375" height="62.336285371291375" width="395.52"><g transform="matrix(1,0,0,1,0,0)"><svg width="395.52" viewBox="2.5 -37.7 291.53 45.95" height="62.336285371291375" data-palette-color="#ffffff"><g class="wordmark-text-0" data-fill-palette-color="primary" id="text-0"><path d="M17.75-9.05L12.5-9.05 12.5 0 2.5 0 2.5-31.25 17-31.25Q21.25-31.25 23.9-30.08 26.55-28.9 27.78-26.35 29-23.8 29-19.7L29-19.7Q29-14.25 26.28-11.65 23.55-9.05 17.75-9.05L17.75-9.05ZM12.5-23L12.5-16.3 16.55-16.3Q17.65-16.3 18.07-16.75 18.5-17.2 18.5-18.4L18.5-18.4 18.5-20.9Q18.5-22.1 18.07-22.55 17.65-23 16.55-23L16.55-23 12.5-23ZM14.25-10.95L22.65-16.05 30.25 0 19.4 0 14.25-10.95ZM41.25 0.75L41.25 0.75Q36.7 0.75 34.6-1.3 32.5-3.35 32.5-7.75L32.5-7.75Q32.5-10 33.22-11.58 33.95-13.15 35.5-14.13 37.05-15.1 39.57-15.55 42.1-16 45.75-16L45.75-16 48.75-16 48.75-11 45.15-11Q43.2-11 42.45-10.55 41.7-10.1 41.7-8.9L41.7-8.9 41.7-6 43.8-6Q45.75-6 46.5-6.4 47.25-6.8 47.25-7.9L47.25-7.9 47.25-18.25Q46.5-18.45 44.75-18.45L44.75-18.45Q42.5-18.45 40.05-18.15 37.6-17.85 34.85-17.15L34.85-17.15 33.65-24.05Q35.55-24.65 37.52-25.03 39.5-25.4 41.57-25.58 43.65-25.75 45.75-25.75L45.75-25.75Q49.75-25.75 52.27-24.83 54.8-23.9 56.02-21.98 57.25-20.05 57.25-17L57.25-17 57.25 0 52.25 0 49.75-2.5Q47.9-0.95 45.7-0.1 43.5 0.75 41.25 0.75ZM77 0.75L77 0.75Q74.25 0.75 72.2-0.05 70.15-0.85 68.84-2.48 67.55-4.1 66.9-6.6 66.25-9.1 66.25-12.5L66.25-12.5Q66.25-15.9 66.9-18.4 67.55-20.9 68.84-22.53 70.15-24.15 72.2-24.95 74.25-25.75 77-25.75L77-25.75Q79.8-25.75 81.82-24.98 83.84-24.2 85.17-22.58 86.5-20.95 87.12-18.45 87.75-15.95 87.75-12.5L87.75-12.5Q87.75-9.05 87.12-6.55 86.5-4.05 85.17-2.43 83.84-0.8 81.82-0.03 79.8 0.75 77 0.75ZM72-16.85L72-6.75 75.05-6.75Q76.2-6.75 76.59-7.05 77-7.35 77-8.15L77-8.15 77-18.25 73.95-18.25Q72.84-18.25 72.42-17.95 72-17.65 72-16.85L72-16.85ZM72 7.5L62 8.25 62-25 67-25 72-18.25 72 7.5ZM91.74 0L91.74-23.75 101.74-25 101.74 0 91.74 0ZM96.74-27.1L96.74-27.1Q93.69-27.1 92.57-28.2 91.44-29.3 91.44-32.35L91.44-32.35Q91.44-35.45 92.57-36.58 93.69-37.7 96.74-37.7L96.74-37.7Q99.74-37.7 100.87-36.58 101.99-35.45 101.99-32.35L101.99-32.35Q101.99-29.3 100.92-28.2 99.84-27.1 96.74-27.1ZM116.49-25.75L116.49-25.75Q119.29-25.75 121.32-24.95 123.34-24.15 124.64-22.53 125.94-20.9 126.59-18.4 127.24-15.9 127.24-12.5L127.24-12.5Q127.24-9.1 126.59-6.6 125.94-4.1 124.64-2.48 123.34-0.85 121.32-0.05 119.29 0.75 116.49 0.75L116.49 0.75Q113.69 0.75 111.67-0.03 109.64-0.8 108.32-2.43 106.99-4.05 106.37-6.55 105.74-9.05 105.74-12.5L105.74-12.5Q105.74-15.95 106.37-18.45 106.99-20.95 108.32-22.58 109.64-24.2 111.67-24.98 113.69-25.75 116.49-25.75ZM121.49-8.15L121.49-18.25 118.44-18.25Q117.34-18.25 116.92-17.95 116.49-17.65 116.49-16.85L116.49-16.85 116.49-6.75 119.54-6.75Q120.69-6.75 121.09-7.05 121.49-7.35 121.49-8.15L121.49-8.15ZM121.49-32.5L131.49-33.25 131.49 0 126.49 0 121.49-6.75 121.49-32.5ZM135.24-10L135.24-15.4Q135.24-16.85 136.21-17.18 137.19-17.5 138.69-17.5L138.69-17.5 150.24-17.5 150.24-12.1Q150.24-10.65 149.26-10.33 148.29-10 146.79-10L146.79-10 135.24-10ZM169.24-9.05L163.99-9.05 163.99 0 153.99 0 153.99-31.25 168.49-31.25Q172.74-31.25 175.39-30.08 178.04-28.9 179.26-26.35 180.49-23.8 180.49-19.7L180.49-19.7Q180.49-14.25 177.76-11.65 175.04-9.05 169.24-9.05L169.24-9.05ZM163.99-23L163.99-16.3 168.04-16.3Q169.14-16.3 169.56-16.75 169.99-17.2 169.99-18.4L169.99-18.4 169.99-20.9Q169.99-22.1 169.56-22.55 169.14-23 168.04-23L168.04-23 163.99-23ZM165.74-10.95L174.14-16.05 181.74 0 170.89 0 165.74-10.95ZM197.48 0.75L197.48 0.75Q194.08 0.75 191.58-0.05 189.08-0.85 187.46-2.48 185.83-4.1 185.03-6.6 184.23-9.1 184.23-12.5L184.23-12.5Q184.23-17.1 185.66-20.03 187.08-22.95 190.01-24.35 192.93-25.75 197.48-25.75L197.48-25.75Q201.98-25.75 204.53-24.98 207.08-24.2 208.16-22.35 209.23-20.5 209.23-17.25L209.23-17.25Q209.23-15 208.46-13.43 207.68-11.85 206.01-10.88 204.33-9.9 201.61-9.45 198.88-9 194.98-9L194.98-9 193.48-9 193.48-14 196.78-14Q198.73-14 199.48-14.45 200.23-14.9 200.23-16.1L200.23-16.1 200.23-18.5 198.43-18.5Q196.48-18.5 195.73-18.1 194.98-17.7 194.98-16.6L194.98-16.6 194.98-6.75Q195.58-6.65 196.41-6.6 197.23-6.55 198.48-6.55L198.48-6.55Q200.63-6.55 202.86-6.88 205.08-7.2 207.38-7.85L207.38-7.85 208.58-0.95Q205.98-0.1 203.21 0.33 200.43 0.75 197.48 0.75ZM221.23 0.75L221.23 0.75Q216.68 0.75 214.58-1.3 212.48-3.35 212.48-7.75L212.48-7.75Q212.48-10 213.21-11.58 213.93-13.15 215.48-14.13 217.03-15.1 219.56-15.55 222.08-16 225.73-16L225.73-16 228.73-16 228.73-11 225.13-11Q223.18-11 222.43-10.55 221.68-10.1 221.68-8.9L221.68-8.9 221.68-6 223.78-6Q225.73-6 226.48-6.4 227.23-6.8 227.23-7.9L227.23-7.9 227.23-18.25Q226.48-18.45 224.73-18.45L224.73-18.45Q222.48-18.45 220.03-18.15 217.58-17.85 214.83-17.15L214.83-17.15 213.63-24.05Q215.53-24.65 217.51-25.03 219.48-25.4 221.56-25.58 223.63-25.75 225.73-25.75L225.73-25.75Q229.73-25.75 232.26-24.83 234.78-23.9 236.01-21.98 237.23-20.05 237.23-17L237.23-17 237.23 0 232.23 0 229.73-2.5Q227.88-0.95 225.68-0.1 223.48 0.75 221.23 0.75ZM251.73-25.75L251.73-25.75Q254.53-25.75 256.55-24.95 258.58-24.15 259.88-22.53 261.18-20.9 261.83-18.4 262.48-15.9 262.48-12.5L262.48-12.5Q262.48-9.1 261.83-6.6 261.18-4.1 259.88-2.48 258.58-0.85 256.55-0.05 254.53 0.75 251.73 0.75L251.73 0.75Q248.93 0.75 246.9-0.03 244.88-0.8 243.55-2.43 242.23-4.05 241.6-6.55 240.98-9.05 240.98-12.5L240.98-12.5Q240.98-15.95 241.6-18.45 242.23-20.95 243.55-22.58 244.88-24.2 246.9-24.98 248.93-25.75 251.73-25.75ZM256.73-8.15L256.73-18.25 253.68-18.25Q252.58-18.25 252.15-17.95 251.73-17.65 251.73-16.85L251.73-16.85 251.73-6.75 254.78-6.75Q255.93-6.75 256.33-7.05 256.73-7.35 256.73-8.15L256.73-8.15ZM256.73-32.5L266.73-33.25 266.73 0 261.73 0 256.73-6.75 256.73-32.5ZM270.83-17.3L270.83-17.3Q270.83-21.65 273.53-23.7 276.23-25.75 281.98-25.75L281.98-25.75Q284.83-25.75 287.6-25.48 290.38-25.2 292.78-24.65L292.78-24.65 291.63-17.75Q290.38-18.1 288.95-18.25 287.53-18.4 285.78-18.4L285.78-18.4Q284.63-18.4 283.45-18.28 282.28-18.15 281.58-17.9L281.58-17.9 281.58-16.1Q285.03-15.75 287.4-15.13 289.78-14.5 291.23-13.53 292.68-12.55 293.35-11.15 294.03-9.75 294.03-7.8L294.03-7.8Q294.03-4.85 292.7-2.95 291.38-1.05 288.6-0.15 285.83 0.75 281.43 0.75L281.43 0.75Q278.53 0.75 275.6 0.3 272.68-0.15 270.48-0.95L270.48-0.95 271.73-8.15Q275.28-6.6 279.73-6.6L279.73-6.6Q280.38-6.6 281.28-6.7 282.18-6.8 283.28-7L283.28-7 283.28-8.95Q279.63-9.3 277.23-9.88 274.83-10.45 273.43-11.4 272.03-12.35 271.43-13.78 270.83-15.2 270.83-17.3Z" fill="#ffffff" data-fill-palette-color="primary"></path></g></svg></g></svg></g></svg></g></svg></g><g><svg viewBox="0 0 74.7648048967832 69.780484570331" height="69.780484570331" width="74.7648048967832"><g><svg xmlns="http://www.w3.org/2000/svg" xmlns:xlink="http://www.w3.org/1999/xlink" version="1.1" x="0" y="0" viewBox="5.5 7.5 90 84" enable-background="new 0 0 100 100" xml:space="preserve" height="69.780484570331" width="74.7648048967832" class="icon-icon-0" data-fill-palette-color="accent" id="icon-0"><g fill="#ffffff" data-fill-palette-color="accent"><polygon points="43.5,29.609 43.39,29.5 41.976,29.5 43.5,31.031  " fill="#ffffff" data-fill-palette-color="accent"></polygon><polygon points="43.5,38.145 34.906,29.5 33.491,29.5 43.5,39.566  " fill="#ffffff" data-fill-palette-color="accent"></polygon><polygon points="36.76,65.5 5.5,34.063 5.5,35.484 35.346,65.5  " fill="#ffffff" data-fill-palette-color="accent"></polygon><polygon points="33.932,65.5 5.5,36.906 5.5,38.328 32.518,65.5  " fill="#ffffff" data-fill-palette-color="accent"></polygon><polygon points="43.5,55.213 17.935,29.5 16.521,29.5 43.5,56.635  " fill="#ffffff" data-fill-palette-color="accent"></polygon><polygon points="43.5,35.299 37.734,29.5 36.32,29.5 43.5,36.721  " fill="#ffffff" data-fill-palette-color="accent"></polygon><polygon points="42.417,65.5 6.621,29.5 5.5,29.5 5.5,29.795 41.002,65.5  " fill="#ffffff" data-fill-palette-color="accent"></polygon><polygon points="43.5,40.988 32.077,29.5 30.663,29.5 43.5,42.41  " fill="#ffffff" data-fill-palette-color="accent"></polygon><polygon points="43.5,32.455 40.562,29.5 39.148,29.5 43.5,33.877  " fill="#ffffff" data-fill-palette-color="accent"></polygon><polygon points="14.134,65.5 5.5,56.799 5.5,58.221 12.721,65.5  " fill="#ffffff" data-fill-palette-color="accent"></polygon><polygon points="43.5,58.057 15.106,29.5 13.692,29.5 43.5,59.479  " fill="#ffffff" data-fill-palette-color="accent"></polygon><polygon points="8.035,29.5 43.5,65.168 43.5,63.744 9.449,29.5  " fill="#ffffff" data-fill-palette-color="accent"></polygon><polygon points="43.5,60.9 12.278,29.5 10.863,29.5 43.5,62.322  " fill="#ffffff" data-fill-palette-color="accent"></polygon><polygon points="39.588,65.5 5.5,31.219 5.5,32.641 38.174,65.5  " fill="#ffffff" data-fill-palette-color="accent"></polygon><polygon points="22.616,65.5 5.5,48.281 5.5,49.699 21.202,65.5  " fill="#ffffff" data-fill-palette-color="accent"></polygon><polygon points="25.445,65.5 5.5,45.439 5.5,46.861 24.031,65.5  " fill="#ffffff" data-fill-palette-color="accent"></polygon><polygon points="43.5,43.834 29.248,29.5 27.834,29.5 43.5,45.256  " fill="#ffffff" data-fill-palette-color="accent"></polygon><polygon points="43.5,49.523 23.591,29.5 22.177,29.5 43.5,50.945  " fill="#ffffff" data-fill-palette-color="accent"></polygon><polygon points="16.961,65.5 5.5,53.957 5.5,55.377 15.548,65.5  " fill="#ffffff" data-fill-palette-color="accent"></polygon><polygon points="19.789,65.5 5.5,51.119 5.5,52.537 18.375,65.5  " fill="#ffffff" data-fill-palette-color="accent"></polygon><polygon points="43.5,52.367 20.763,29.5 19.349,29.5 43.5,53.789  " fill="#ffffff" data-fill-palette-color="accent"></polygon><polygon points="11.307,65.5 5.5,59.643 5.5,61.066 9.893,65.5  " fill="#ffffff" data-fill-palette-color="accent"></polygon><polygon points="8.479,65.5 5.5,62.492 5.5,63.918 7.065,65.5  " fill="#ffffff" data-fill-palette-color="accent"></polygon><polygon points="31.104,65.5 5.5,39.75 5.5,41.174 29.689,65.5  " fill="#ffffff" data-fill-palette-color="accent"></polygon><polygon points="28.273,65.5 5.5,42.596 5.5,44.018 26.859,65.5  " fill="#ffffff" data-fill-palette-color="accent"></polygon><polygon points="43.5,46.678 26.42,29.5 25.006,29.5 43.5,48.1  " fill="#ffffff" data-fill-palette-color="accent"></polygon><rect x="5.5" y="17.5" width="67" height="6" fill="#ffffff" data-fill-palette-color="accent"></rect><rect x="49.5" y="29.5" width="46" height="4" fill="#ffffff" data-fill-palette-color="accent"></rect><rect x="5.5" y="87.5" width="45" height="4" fill="#ffffff" data-fill-palette-color="accent"></rect><rect x="5.5" y="71.5" width="83" height="4" fill="#ffffff" data-fill-palette-color="accent"></rect><rect x="5.5" y="79.5" width="90" height="4" fill="#ffffff" data-fill-palette-color="accent"></rect><rect x="49.5" y="53.5" width="46" height="4" fill="#ffffff" data-fill-palette-color="accent"></rect><rect x="49.5" y="37.5" width="29" height="4" fill="#ffffff" data-fill-palette-color="accent"></rect><rect x="49.5" y="61.5" width="29" height="4" fill="#ffffff" data-fill-palette-color="accent"></rect><rect x="49.5" y="45.5" width="39" height="4" fill="#ffffff" data-fill-palette-color="accent"></rect><rect x="5.5" y="7.5" width="90" height="6" fill="#ffffff" data-fill-palette-color="accent"></rect></g></svg></g></svg></g></svg></g><defs></defs></svg><rect width="395.52" height="56.90623858034459" fill="none" stroke="none" visibility="hidden"></rect></g></svg></g></svg>